<svg width="595" height="64" viewBox="0 0 595 64" fill="none" xmlns="http://www.w3.org/2000/svg">
<rect x="275" width="92" height="64" rx="32" fill="black"/>
<path d="M7.128 34.264C8.888 34.2347 10.472 34.1613 11.88 34.044C13.288 33.8973 14.476 33.648 15.444 33.296C16.4413 32.944 17.204 32.46 17.732 31.844C18.26 31.1987 18.524 30.392 18.524 29.424C18.524 29.1893 18.4653 28.94 18.348 28.676C18.26 28.412 18.084 28.1627 17.82 27.928C17.5853 27.6933 17.248 27.5027 16.808 27.356C16.368 27.2093 15.8253 27.136 15.18 27.136C14.1827 27.136 13.244 27.3413 12.364 27.752C11.5133 28.1333 10.736 28.6613 10.032 29.336C9.328 29.9813 8.72667 30.7293 8.228 31.58C7.75867 32.4307 7.392 33.3253 7.128 34.264ZM11.572 45.528C10.1347 45.528 8.888 45.3227 7.832 44.912C6.776 44.472 5.896 43.9 5.192 43.196C4.488 42.492 3.96 41.6853 3.608 40.776C3.28533 39.8373 3.124 38.8693 3.124 37.872C3.124 36.024 3.40267 34.264 3.96 32.592C4.54667 30.92 5.38267 29.468 6.468 28.236C7.55333 26.9747 8.85867 25.9773 10.384 25.244C11.9387 24.4813 13.684 24.1 15.62 24.1C16.764 24.1 17.7467 24.2467 18.568 24.54C19.3893 24.804 20.064 25.1707 20.592 25.64C21.12 26.08 21.5013 26.608 21.736 27.224C22 27.84 22.132 28.4853 22.132 29.16C22.132 31.008 21.6627 32.4453 20.724 33.472C19.7853 34.4987 18.568 35.276 17.072 35.804C15.576 36.3027 13.904 36.6253 12.056 36.772C10.2373 36.9187 8.448 37.0213 6.688 37.08C6.512 38.928 6.996 40.2773 8.14 41.128C9.284 41.9493 10.7947 42.36 12.672 42.36C13.288 42.36 13.9187 42.316 14.564 42.228C15.2387 42.1107 15.8547 41.9933 16.412 41.876C16.9987 41.7293 17.512 41.5827 17.952 41.436C18.392 41.26 18.7 41.1133 18.876 40.996L19.184 44.076C18.6267 44.3693 17.7173 44.6773 16.456 45C15.1947 45.352 13.5667 45.528 11.572 45.528ZM57.42 35.98C57.2733 36.5667 57.1413 37.124 57.024 37.652C56.936 38.18 56.892 38.6933 56.892 39.192C56.892 40.0133 57.0973 40.7027 57.508 41.26C57.948 41.788 58.7693 42.052 59.972 42.052C60.4707 42.052 60.9547 42.0227 61.424 41.964C61.8933 41.876 62.3333 41.7733 62.744 41.656L62.524 44.736C62.3187 44.7947 61.9373 44.8827 61.38 45C60.852 45.088 60.0893 45.132 59.092 45.132C58.0067 45.132 57.0827 44.9853 56.32 44.692C55.5867 44.3987 54.9853 44.0027 54.516 43.504C54.076 43.0053 53.7533 42.4187 53.548 41.744C53.372 41.0693 53.284 40.336 53.284 39.544C53.284 38.928 53.328 38.2973 53.416 37.652C53.5333 37.0067 53.6653 36.3467 53.812 35.672L55.792 27.62H49.896L50.6 24.584H60.104L57.42 35.98ZM58.52 21.416C57.7573 21.416 57.1267 21.196 56.628 20.756C56.1293 20.316 55.88 19.6707 55.88 18.82C55.88 17.7933 56.2027 16.9867 56.848 16.4C57.4933 15.8133 58.212 15.52 59.004 15.52C59.7667 15.52 60.3973 15.7547 60.896 16.224C61.424 16.6933 61.688 17.3533 61.688 18.204C61.688 18.7027 61.5853 19.1427 61.38 19.524C61.204 19.9053 60.9547 20.2427 60.632 20.536C60.3387 20.8293 60.0013 21.0493 59.62 21.196C59.268 21.3427 58.9013 21.416 58.52 21.416ZM95.876 49.312C98.0467 49.312 99.7187 48.828 100.892 47.86C102.095 46.9213 102.887 45.5133 103.268 43.636L103.444 42.888C102.916 43.1813 102.168 43.4747 101.2 43.768C100.261 44.032 99.3227 44.164 98.384 44.164C96.2427 44.164 94.6 43.636 93.456 42.58C92.3413 41.524 91.784 40.0427 91.784 38.136C91.784 36.376 92.0627 34.66 92.62 32.988C93.2067 31.316 94.0867 29.82 95.26 28.5C96.4333 27.18 97.9 26.124 99.66 25.332C101.42 24.54 103.473 24.144 105.82 24.144C106.172 24.144 106.597 24.1587 107.096 24.188C107.595 24.2173 108.093 24.276 108.592 24.364C109.12 24.4227 109.619 24.5253 110.088 24.672C110.587 24.7893 111.012 24.9507 111.364 25.156L106.832 43.24C106.48 44.648 106.055 45.9093 105.556 47.024C105.057 48.168 104.368 49.136 103.488 49.928C102.637 50.72 101.537 51.3213 100.188 51.732C98.8387 52.172 97.1373 52.392 95.084 52.392C93.9693 52.392 92.8547 52.2453 91.74 51.952C90.6253 51.6587 89.6867 51.2773 88.924 50.808L90.332 47.772C90.9187 48.212 91.7107 48.5787 92.708 48.872C93.7053 49.1653 94.7613 49.312 95.876 49.312ZM99.176 41.172C99.704 41.172 100.217 41.1133 100.716 40.996C101.215 40.8787 101.684 40.732 102.124 40.556C102.593 40.38 103.004 40.204 103.356 40.028C103.737 39.8227 104.045 39.632 104.28 39.456L107.14 27.4C106.876 27.3413 106.539 27.2973 106.128 27.268C105.747 27.2093 105.395 27.18 105.072 27.18C103.664 27.18 102.359 27.4733 101.156 28.06C99.9827 28.6467 98.956 29.424 98.076 30.392C97.2253 31.36 96.5653 32.46 96.096 33.692C95.6267 34.924 95.392 36.1707 95.392 37.432C95.392 38.84 95.7 39.8227 96.316 40.38C96.932 40.908 97.8853 41.172 99.176 41.172ZM133.98 45L141.108 15.124L144.892 14.508L142.384 24.892C142.971 24.6573 143.601 24.4813 144.276 24.364C144.951 24.2173 145.625 24.144 146.3 24.144C147.473 24.144 148.485 24.3053 149.336 24.628C150.187 24.9507 150.876 25.4053 151.404 25.992C151.932 26.5493 152.313 27.224 152.548 28.016C152.812 28.808 152.944 29.6733 152.944 30.612C152.944 31.228 152.885 31.8733 152.768 32.548C152.651 33.2227 152.504 33.912 152.328 34.616L149.82 45H146.212L148.5 35.408C148.676 34.6747 148.852 33.9267 149.028 33.164C149.233 32.372 149.336 31.624 149.336 30.92C149.336 29.8933 149.043 29.0427 148.456 28.368C147.869 27.664 146.799 27.312 145.244 27.312C143.924 27.312 142.751 27.5173 141.724 27.928L137.544 45H133.98ZM195.316 44.428C194.465 44.7213 193.571 44.9707 192.632 45.176C191.723 45.3813 190.755 45.484 189.728 45.484C188.877 45.484 188.085 45.396 187.352 45.22C186.648 45.044 186.017 44.7653 185.46 44.384C184.932 43.9733 184.507 43.4307 184.184 42.756C183.891 42.0813 183.744 41.2307 183.744 40.204C183.744 39.5587 183.788 38.884 183.876 38.18C183.993 37.476 184.14 36.7573 184.316 36.024L186.384 27.62H182.072L182.776 24.584H187.132L188.496 18.864L192.28 18.248L190.74 24.584H198.572L197.868 27.62H189.992L187.924 36.376C187.777 36.9333 187.645 37.476 187.528 38.004C187.411 38.532 187.352 39.0453 187.352 39.544C187.352 40.6587 187.601 41.4067 188.1 41.788C188.628 42.14 189.361 42.316 190.3 42.316C191.209 42.316 192.089 42.228 192.94 42.052C193.82 41.8467 194.641 41.5973 195.404 41.304L195.316 44.428ZM232.452 41.7C233.449 40.116 234.344 38.488 235.136 36.816C235.957 35.1147 236.676 33.5013 237.292 31.976C237.908 30.4213 238.421 28.9987 238.832 27.708C239.272 26.4173 239.58 25.376 239.756 24.584H243.584C243.291 25.5813 242.88 26.828 242.352 28.324C241.824 29.7907 241.179 31.3893 240.416 33.12C239.683 34.8213 238.847 36.5813 237.908 38.4C236.969 40.1893 235.957 41.8907 234.872 43.504C234.051 44.736 233.215 45.8947 232.364 46.98C231.543 48.0653 230.648 49.004 229.68 49.796C228.741 50.6173 227.685 51.248 226.512 51.688C225.368 52.1573 224.077 52.392 222.64 52.392C221.907 52.392 221.232 52.304 220.616 52.128C220 51.952 219.531 51.7467 219.208 51.512L220.484 48.52C220.719 48.7547 221.056 48.9307 221.496 49.048C221.965 49.1947 222.479 49.268 223.036 49.268C224.561 49.268 225.837 48.96 226.864 48.344C227.891 47.728 228.903 46.7013 229.9 45.264C228.932 42.0667 228.081 38.7227 227.348 35.232C226.615 31.7413 226.175 28.192 226.028 24.584H229.724C229.753 25.7573 229.841 27.048 229.988 28.456C230.135 29.864 230.325 31.316 230.56 32.812C230.824 34.308 231.117 35.8187 231.44 37.344C231.763 38.8693 232.1 40.3213 232.452 41.7ZM399.124 37.696C399.124 35.9067 399.417 34.1907 400.004 32.548C400.62 30.9053 401.5 29.4533 402.644 28.192C403.817 26.9307 405.24 25.9333 406.912 25.2C408.613 24.4373 410.564 24.056 412.764 24.056C413.967 24.056 415.023 24.144 415.932 24.32C416.841 24.4667 417.692 24.7013 418.484 25.024L417.12 28.104C416.621 27.8693 416.02 27.6493 415.316 27.444C414.641 27.2387 413.688 27.136 412.456 27.136C410.96 27.136 409.611 27.4293 408.408 28.016C407.205 28.5733 406.179 29.336 405.328 30.304C404.507 31.2427 403.876 32.328 403.436 33.56C402.996 34.7627 402.776 36.024 402.776 37.344C402.776 38.0187 402.864 38.664 403.04 39.28C403.216 39.8667 403.539 40.3947 404.008 40.864C404.477 41.3333 405.108 41.7 405.9 41.964C406.721 42.228 407.748 42.36 408.98 42.36C409.625 42.36 410.256 42.316 410.872 42.228C411.488 42.14 412.06 42.0227 412.588 41.876C413.116 41.7293 413.571 41.5827 413.952 41.436C414.363 41.2893 414.671 41.1427 414.876 40.996L415.184 44.076C414.656 44.3987 413.791 44.7213 412.588 45.044C411.415 45.3667 409.992 45.528 408.32 45.528C405.269 45.528 402.967 44.7947 401.412 43.328C399.887 41.8613 399.124 39.984 399.124 37.696ZM456.544 45.22C456.397 44.9267 456.265 44.6187 456.148 44.296C456.031 43.944 455.943 43.5627 455.884 43.152C455.297 43.68 454.476 44.208 453.42 44.736C452.393 45.2347 451.176 45.484 449.768 45.484C447.48 45.484 445.793 44.7947 444.708 43.416C443.652 42.0373 443.124 40.292 443.124 38.18C443.124 36.42 443.417 34.704 444.004 33.032C444.591 31.36 445.471 29.864 446.644 28.544C447.847 27.224 449.343 26.168 451.132 25.376C452.921 24.5547 455.004 24.144 457.38 24.144C457.732 24.144 458.128 24.1587 458.568 24.188C459.037 24.2173 459.507 24.276 459.976 24.364C460.445 24.452 460.9 24.5693 461.34 24.716C461.809 24.8333 462.22 24.98 462.572 25.156L459.58 37.476C459.433 38.092 459.301 38.6787 459.184 39.236C459.096 39.764 459.052 40.336 459.052 40.952C459.052 41.568 459.111 42.184 459.228 42.8C459.345 43.3867 459.521 44.0467 459.756 44.78L456.544 45.22ZM450.516 42.492C451.631 42.492 452.613 42.2573 453.464 41.788C454.344 41.3187 455.077 40.7613 455.664 40.116C455.693 39.676 455.737 39.1773 455.796 38.62C455.884 38.0627 455.987 37.5347 456.104 37.036L458.524 27.4C458.377 27.3413 458.099 27.2973 457.688 27.268C457.277 27.2093 456.955 27.18 456.72 27.18C455.224 27.18 453.86 27.4733 452.628 28.06C451.425 28.6467 450.384 29.4387 449.504 30.436C448.624 31.404 447.949 32.5333 447.48 33.824C447.011 35.0853 446.776 36.4053 446.776 37.784C446.776 38.4587 446.835 39.0893 446.952 39.676C447.069 40.2333 447.26 40.7173 447.524 41.128C447.817 41.5387 448.199 41.876 448.668 42.14C449.167 42.3747 449.783 42.492 450.516 42.492ZM487.124 37.696C487.124 35.9067 487.417 34.1907 488.004 32.548C488.62 30.9053 489.5 29.4533 490.644 28.192C491.817 26.9307 493.24 25.9333 494.912 25.2C496.613 24.4373 498.564 24.056 500.764 24.056C501.967 24.056 503.023 24.144 503.932 24.32C504.841 24.4667 505.692 24.7013 506.484 25.024L505.12 28.104C504.621 27.8693 504.02 27.6493 503.316 27.444C502.641 27.2387 501.688 27.136 500.456 27.136C498.96 27.136 497.611 27.4293 496.408 28.016C495.205 28.5733 494.179 29.336 493.328 30.304C492.507 31.2427 491.876 32.328 491.436 33.56C490.996 34.7627 490.776 36.024 490.776 37.344C490.776 38.0187 490.864 38.664 491.04 39.28C491.216 39.8667 491.539 40.3947 492.008 40.864C492.477 41.3333 493.108 41.7 493.9 41.964C494.721 42.228 495.748 42.36 496.98 42.36C497.625 42.36 498.256 42.316 498.872 42.228C499.488 42.14 500.06 42.0227 500.588 41.876C501.116 41.7293 501.571 41.5827 501.952 41.436C502.363 41.2893 502.671 41.1427 502.876 40.996L503.184 44.076C502.656 44.3987 501.791 44.7213 500.588 45.044C499.415 45.3667 497.992 45.528 496.32 45.528C493.269 45.528 490.967 44.7947 489.412 43.328C487.887 41.8613 487.124 39.984 487.124 37.696ZM544.544 45.22C544.397 44.9267 544.265 44.6187 544.148 44.296C544.031 43.944 543.943 43.5627 543.884 43.152C543.297 43.68 542.476 44.208 541.42 44.736C540.393 45.2347 539.176 45.484 537.768 45.484C535.48 45.484 533.793 44.7947 532.708 43.416C531.652 42.0373 531.124 40.292 531.124 38.18C531.124 36.42 531.417 34.704 532.004 33.032C532.591 31.36 533.471 29.864 534.644 28.544C535.847 27.224 537.343 26.168 539.132 25.376C540.921 24.5547 543.004 24.144 545.38 24.144C545.732 24.144 546.128 24.1587 546.568 24.188C547.037 24.2173 547.507 24.276 547.976 24.364C548.445 24.452 548.9 24.5693 549.34 24.716C549.809 24.8333 550.22 24.98 550.572 25.156L547.58 37.476C547.433 38.092 547.301 38.6787 547.184 39.236C547.096 39.764 547.052 40.336 547.052 40.952C547.052 41.568 547.111 42.184 547.228 42.8C547.345 43.3867 547.521 44.0467 547.756 44.78L544.544 45.22ZM538.516 42.492C539.631 42.492 540.613 42.2573 541.464 41.788C542.344 41.3187 543.077 40.7613 543.664 40.116C543.693 39.676 543.737 39.1773 543.796 38.62C543.884 38.0627 543.987 37.5347 544.104 37.036L546.524 27.4C546.377 27.3413 546.099 27.2973 545.688 27.268C545.277 27.2093 544.955 27.18 544.72 27.18C543.224 27.18 541.86 27.4733 540.628 28.06C539.425 28.6467 538.384 29.4387 537.504 30.436C536.624 31.404 535.949 32.5333 535.48 33.824C535.011 35.0853 534.776 36.4053 534.776 37.784C534.776 38.4587 534.835 39.0893 534.952 39.676C535.069 40.2333 535.26 40.7173 535.524 41.128C535.817 41.5387 536.199 41.876 536.668 42.14C537.167 42.3747 537.783 42.492 538.516 42.492ZM582.428 45.484C580.257 45.484 578.556 44.8533 577.324 43.592C576.121 42.3307 575.52 40.5853 575.52 38.356C575.52 36.8307 575.725 35.232 576.136 33.56C576.576 31.888 577.265 30.348 578.204 28.94C579.172 27.532 580.404 26.3733 581.9 25.464C583.396 24.5547 585.2 24.1 587.312 24.1C589.483 24.1 591.169 24.7307 592.372 25.992C593.604 27.2533 594.22 28.9987 594.22 31.228C594.22 32.7533 594 34.352 593.56 36.024C593.149 37.696 592.46 39.236 591.492 40.644C590.553 42.052 589.336 43.2107 587.84 44.12C586.344 45.0293 584.54 45.484 582.428 45.484ZM583.044 42.228C584.217 42.228 585.273 41.9053 586.212 41.26C587.151 40.5853 587.943 39.7347 588.588 38.708C589.233 37.6813 589.717 36.5373 590.04 35.276C590.392 33.9853 590.568 32.7387 590.568 31.536C590.568 30.216 590.275 29.1893 589.688 28.456C589.101 27.6933 588.104 27.312 586.696 27.312C585.523 27.312 584.467 27.6493 583.528 28.324C582.589 28.9693 581.797 29.82 581.152 30.876C580.507 31.9027 580.008 33.0613 579.656 34.352C579.333 35.6133 579.172 36.8453 579.172 38.048C579.172 39.368 579.465 40.3947 580.052 41.128C580.639 41.8613 581.636 42.228 583.044 42.228Z" fill="black"/>
<path d="M311.388 45H308.22L331.408 17.764H334.576L311.388 45ZM312.356 26.212C312.356 25.332 312.459 24.364 312.664 23.308C312.899 22.252 313.265 21.284 313.764 20.404C314.263 19.4947 314.893 18.732 315.656 18.116C316.448 17.5 317.416 17.192 318.56 17.192C321.083 17.192 322.344 18.7027 322.344 21.724C322.344 23.1907 322.168 24.496 321.816 25.64C321.493 26.7547 321.039 27.708 320.452 28.5C319.895 29.2627 319.249 29.8493 318.516 30.26C317.783 30.6707 317.005 30.876 316.184 30.876C314.952 30.876 313.999 30.48 313.324 29.688C312.679 28.896 312.356 27.7373 312.356 26.212ZM316.58 28.544C317.137 28.544 317.607 28.2947 317.988 27.796C318.369 27.268 318.677 26.6667 318.912 25.992C319.176 25.288 319.352 24.5693 319.44 23.836C319.557 23.1027 319.616 22.516 319.616 22.076C319.616 21.3133 319.499 20.6973 319.264 20.228C319.029 19.7293 318.663 19.48 318.164 19.48C317.783 19.48 317.401 19.656 317.02 20.008C316.668 20.3307 316.345 20.7853 316.052 21.372C315.759 21.9587 315.524 22.648 315.348 23.44C315.172 24.2027 315.084 25.0093 315.084 25.86C315.084 26.6813 315.201 27.3413 315.436 27.84C315.671 28.3093 316.052 28.544 316.58 28.544ZM320.452 40.952C320.452 40.072 320.555 39.104 320.76 38.048C320.995 36.992 321.361 36.024 321.86 35.144C322.359 34.2347 322.989 33.472 323.752 32.856C324.544 32.24 325.512 31.932 326.656 31.932C329.179 31.932 330.44 33.4427 330.44 36.464C330.44 37.9307 330.264 39.236 329.912 40.38C329.589 41.4947 329.135 42.448 328.548 43.24C327.991 44.0027 327.345 44.5893 326.612 45C325.879 45.3813 325.101 45.572 324.28 45.572C323.048 45.572 322.095 45.1907 321.42 44.428C320.775 43.636 320.452 42.4773 320.452 40.952ZM324.676 43.284C325.233 43.284 325.703 43.0347 326.084 42.536C326.465 42.008 326.773 41.4067 327.008 40.732C327.272 40.028 327.448 39.3093 327.536 38.576C327.653 37.8427 327.712 37.256 327.712 36.816C327.712 36.0533 327.595 35.4373 327.36 34.968C327.125 34.4693 326.759 34.22 326.26 34.22C325.879 34.22 325.497 34.396 325.116 34.748C324.764 35.0707 324.441 35.5253 324.148 36.112C323.855 36.6987 323.62 37.388 323.444 38.18C323.268 38.9427 323.18 39.7493 323.18 40.6C323.18 41.4213 323.297 42.0813 323.532 42.58C323.767 43.0493 324.148 43.284 324.676 43.284Z" fill="white"/>
</svg>
